<?xml version="1.0" encoding="UTF-8" standalone="no"?>
<!-- Created with Inkscape (http://www.inkscape.org/) -->

<svg
   xmlns:dc="http://purl.org/dc/elements/1.1/"
   xmlns:cc="http://creativecommons.org/ns#"
   xmlns:rdf="http://www.w3.org/1999/02/22-rdf-syntax-ns#"
   xmlns:svg="http://www.w3.org/2000/svg"
   xmlns="http://www.w3.org/2000/svg"
   xmlns:sodipodi="http://sodipodi.sourceforge.net/DTD/sodipodi-0.dtd"
   xmlns:inkscape="http://www.inkscape.org/namespaces/inkscape"
   width="210mm"
   height="297mm"
   viewBox="0 0 744.09448819 1052.3622047"
   id="svg6426"
   version="1.1"
   inkscape:version="0.91 r13725"
   sodipodi:docname="puerco-final.svg">
  <defs
     id="defs6428" />
  <sodipodi:namedview
     id="base"
     pagecolor="#ffffff"
     bordercolor="#666666"
     borderopacity="1.0"
     inkscape:pageopacity="0.0"
     inkscape:pageshadow="2"
     inkscape:zoom="1"
     inkscape:cx="472.60903"
     inkscape:cy="603.69491"
     inkscape:document-units="px"
     inkscape:current-layer="layer1"
     showgrid="false"
     inkscape:window-width="1920"
     inkscape:window-height="1136"
     inkscape:window-x="0"
     inkscape:window-y="27"
     inkscape:window-maximized="1"
     showborder="false" />
  <metadata
     id="metadata6431">
    <rdf:RDF>
      <cc:Work
         rdf:about="">
        <dc:format>image/svg+xml</dc:format>
        <dc:type
           rdf:resource="http://purl.org/dc/dcmitype/StillImage" />
        <dc:title></dc:title>
      </cc:Work>
    </rdf:RDF>
  </metadata>
  <g
     inkscape:label="Layer 1"
     inkscape:groupmode="layer"
     id="layer1">
    <g
       id="g7596"
       inkscape:export-xdpi="90"
       inkscape:export-ydpi="90">
      <rect
         y="24.02026"
         x="26.57251"
         height="349.8522"
         width="350"
         id="rect6350"
         style="display:inline;opacity:1;fill:#cccccc;fill-opacity:1;stroke:none;stroke-width:11;stroke-linejoin:round;stroke-miterlimit:4;stroke-dasharray:none;stroke-dashoffset:0;stroke-opacity:1" />
      <path
         inkscape:connector-curvature="0"
         id="rect14777"
         d="m 73.981346,24.168586 0,23.710324 23.221003,0 0,22.880282 -23.221003,0 0,23.710304 0,22.882364 -23.221008,0 0,23.71031 23.667568,0 23.218891,0 23.221003,0 22.77443,0 0.44657,0 23.22101,0 0,-23.71031 -23.22101,0 -0.44657,0 -22.77443,0 -23.221003,0 0,-23.296335 0,-22.880292 22.776533,0 0,23.294263 23.66547,0 0,-23.710304 -23.221,0 0,-23.296333 -23.221003,0 0,-23.294273 -23.665451,0 z"
         style="display:inline;fill:#000000;stroke:none" />
      <path
         inkscape:connector-curvature="0"
         id="rect14779"
         d="m 120.42333,24.168586 0,23.710324 23.66547,0 23.22101,0 23.21889,0 23.22099,0 23.32792,0 22.77653,0 0.44448,0 23.22099,0 0,-23.710324 -23.22099,0 -0.44448,0 -22.77653,0 -23.32792,0 -23.22099,0 -23.21889,0 -23.22101,0 -23.66547,0 z"
         style="display:inline;fill:#000000;stroke:none" />
      <rect
         y="24.168001"
         x="306.29419"
         height="23.710703"
         width="23.665962"
         id="rect14793"
         style="display:inline;fill:#000000;stroke:none" />
      <path
         inkscape:connector-curvature="0"
         id="rect14797"
         d="m 120.42333,47.462859 0,23.296333 -23.220981,0 0,23.710304 0,23.296344 23.220981,0 0.44447,0 23.221,0 0,-23.710315 -23.221,0 0,-22.880292 23.221,0 0,-23.712374 -23.66547,0 z"
         style="display:inline;fill:#fcd2e0;fill-opacity:1;stroke:none" />
      <path
         inkscape:connector-curvature="0"
         id="rect14799"
         d="m 143.64223,47.462859 0,23.296333 0,0.416041 0,23.294263 0,23.296344 23.221,0 0,23.29633 23.22101,0 0,23.29634 0,23.29426 0,23.29634 0,22.88029 -23.22101,0 0,23.29634 -23.221,0 0,23.7103 0,23.29633 23.66758,0 23.21889,0 23.22099,0 23.32792,0 23.22101,0 0,-23.71031 0,-23.29632 -23.22101,0 -23.32792,0 -23.22099,0 0,-22.88029 23.22099,0 23.32792,0 23.22101,0 0,-23.29634 23.22099,0 0,-23.71031 0,-23.29632 0,-23.29635 0,-23.29427 0,-23.296335 0,-23.296333 0,-23.296333 -23.22099,0 -23.22101,0 -23.32792,0 -23.22099,0 -23.21889,0 -0.44658,0 -23.221,0 z m 46.88647,23.712374 22.88346,0 0,22.880292 -22.88346,0 0,-22.880292 z"
         style="display:inline;fill:#ffaac7;fill-opacity:1;stroke:none" />
      <rect
         y="47.463856"
         x="283.07373"
         height="23.710703"
         width="23.665962"
         id="rect14811"
         style="display:inline;fill:#000000;stroke:none" />
      <rect
         y="70.759651"
         x="190.08395"
         height="23.710703"
         width="23.665962"
         id="rect14823"
         style="display:inline;fill:#000000;stroke:none" />
      <path
         inkscape:connector-curvature="0"
         id="rect14831"
         d="m 283.07304,70.759192 0,23.710304 0,23.296344 0,23.29633 0,22.88031 0,0.41603 0,23.29426 23.66758,0 0,-23.29426 0,-0.41603 0,-23.29635 0,-23.29427 0,-23.296335 0,-23.296333 -23.66758,0 z"
         style="display:inline;fill:#f7859c;fill-opacity:1;stroke:none" />
      <path
         inkscape:connector-curvature="0"
         id="rect14833"
         d="m 306.29404,70.759192 0,23.296333 0,0.413971 0,23.296344 0,23.29633 0,23.29634 0,23.29426 23.66547,0 0,-23.71029 0,-23.29635 0,-23.29427 0,-22.882364 0,-0.413971 0,-23.296333 -23.66547,0 z"
         style="display:inline;fill:#000000;stroke:none" />
      <path
         inkscape:connector-curvature="0"
         id="rect14881"
         d="m 27.541454,140.64613 0,23.29635 0,0.41603 0,23.29426 0,23.29634 0,23.29634 23.665455,0 0,-23.71033 0,-23.29632 0,-22.88029 0,-0.41603 0,-23.29635 -23.665455,0 z"
         style="display:inline;fill:#000000;stroke:none" />
      <path
         inkscape:connector-curvature="0"
         id="rect14883"
         d="m 50.760338,140.64613 0,23.29635 0,0.41603 0,23.29426 0.0021,0 0,23.29634 0,23.29634 23.665455,0 0,-23.71033 0,-23.29632 0,-22.88029 22.774444,0 0,23.29426 0,23.29634 0,23.29634 23.665453,0 0,-23.71033 0,-23.29632 0,-22.88029 22.77443,0 0,23.29426 0,23.29634 0,23.29634 23.66758,0 0,-23.71033 0,-23.29632 0,-23.29632 0,-23.29635 -23.22101,0 -23.221,0 -23.221006,0 -23.218891,0 -0.44656,0 -23.221007,0 z"
         style="display:inline;fill:#e7799e;fill-opacity:1;stroke:none" />
      <path
         inkscape:connector-curvature="0"
         id="rect14893"
         d="m 166.86323,140.64613 0,23.71238 0,23.29426 0,22.88235 0,0.41399 0,23.29634 23.66547,0 0,-23.29634 0,-0.41399 0,-23.29632 0,-23.29632 0,-23.29635 -23.66547,0 z"
         style="display:inline;fill:#000000;stroke:none" />
      <path
         inkscape:connector-curvature="0"
         id="rect14911"
         d="m 73.981346,163.94248 0,23.29632 0,0.41397 0,23.29634 23.667563,0 0,-23.71031 -0.0021,0 0,-23.29632 -23.665451,0 z"
         style="display:inline;fill:#000000;stroke:none" />
      <path
         inkscape:connector-curvature="0"
         id="rect14915"
         d="m 120.42333,163.94248 0,23.29632 0,0.41397 0,23.29634 23.66547,0 0,-23.29634 0,-0.41397 0,-23.29632 -23.66547,0 z"
         style="display:inline;fill:#000000;stroke:none" />
      <rect
         y="187.23882"
         x="283.07388"
         height="23.710703"
         width="23.665962"
         id="rect14955"
         style="display:inline;fill:#000000;stroke:none" />
      <rect
         y="210.53461"
         x="73.981941"
         height="23.710703"
         width="23.665962"
         id="rect14961"
         style="display:inline;fill:#8e5f6f;fill-opacity:1;stroke:none" />
      <rect
         y="210.53461"
         x="120.42283"
         height="23.710703"
         width="23.665962"
         id="rect14965"
         style="display:inline;fill:#8e5f6f;fill-opacity:1;stroke:none" />
      <rect
         style="display:inline;fill:#000000;stroke:none"
         id="rect14977"
         width="23.665962"
         height="23.710703"
         x="259.85349"
         y="210.53461" />
      <path
         inkscape:connector-curvature="0"
         id="rect14979"
         d="m 50.760338,233.8294 0,23.71237 23.221008,0 0.44656,0 23.218891,0 22.776533,0 0,22.88029 -23.220981,0 0,23.71031 23.665451,0 23.221,0 0,-23.71031 0,-22.88029 23.22101,0 0,-23.71237 -23.22101,0 -23.221,0 -23.221003,0 -23.218891,0 -0.44656,0 -23.221008,0 z"
         style="display:inline;fill:#000000;stroke:none" />
      <path
         inkscape:connector-curvature="0"
         id="rect14991"
         d="m 190.08424,233.8294 0,23.71237 23.66545,0 22.88347,0 0.44445,0 23.22101,0 0,-23.71237 -23.22101,0 -0.44445,0 -22.88347,0 -23.66545,0 z"
         style="display:inline;fill:#000000;stroke:none" />
      <path
         inkscape:connector-curvature="0"
         id="rect15009"
         d="m 259.85414,257.12574 0,23.29632 0,0.41398 0,23.29633 23.2189,0 0.44657,0 23.22101,0 0,-23.71031 -23.22101,0 0,-23.29632 -23.66547,0 z"
         style="display:inline;fill:#000000;stroke:none" />
      <path
         inkscape:connector-curvature="0"
         id="rect15029"
         d="m 143.64223,303.7184 0,23.29634 0,0.41397 0,22.8803 -23.2189,0 0,23.71029 23.66547,0 23.22101,0 0,-23.71029 0,-22.8803 23.21889,0 23.22099,0 22.88347,0 0,22.8803 -23.221,0 0,23.71029 23.66545,0 23.22101,0 0,-23.71029 0,-23.29427 0,-23.29634 -23.22101,0 -23.32792,0 -23.22099,0 -23.21889,0 -0.44658,0 -23.221,0 z"
         style="display:inline;fill:#000000;stroke:none" />
      <rect
         y="327.0137"
         x="329.60397"
         height="23.710703"
         width="23.665962"
         id="rect15043"
         style="display:inline;fill:#37271a;fill-opacity:1;stroke:none" />
      <rect
         style="display:inline;fill:#593912;fill-opacity:1;stroke:none"
         id="rect15053"
         width="23.665962"
         height="23.710703"
         x="306.38354"
         y="350.30957" />
      <rect
         y="350.30957"
         x="329.60397"
         height="23.710703"
         width="23.665962"
         id="rect15055"
         style="display:inline;fill:#945f01;fill-opacity:1;stroke:none" />
      <rect
         y="350.30957"
         x="352.82443"
         height="23.710703"
         width="23.665962"
         id="rect15057"
         style="display:inline;fill:#37271a;fill-opacity:1;stroke:none" />
    </g>
    <g
       id="g7140"
       inkscape:export-xdpi="90"
       inkscape:export-ydpi="90">
      <rect
         style="display:inline;opacity:1;fill:#ffffff;fill-opacity:1;stroke:none;stroke-width:11;stroke-linejoin:round;stroke-miterlimit:4;stroke-dasharray:none;stroke-dashoffset:0;stroke-opacity:1"
         id="rect7086"
         width="350"
         height="349.8522"
         x="26.57251"
         y="404.84778" />
      <path
         style="display:inline;fill:#000000;stroke:none"
         d="m 73.981346,404.9961 0,23.71032 23.221003,0 0,22.88028 -23.221003,0 0,23.71031 0,22.88236 -23.221008,0 0,23.71031 23.667568,0 23.218891,0 23.221003,0 22.77443,0 0.44657,0 23.22101,0 0,-23.71031 -23.22101,0 -0.44657,0 -22.77443,0 -23.221003,0 0,-23.29634 0,-22.88029 22.776533,0 0,23.29427 23.66547,0 0,-23.71031 -23.221,0 0,-23.29633 -23.221003,0 0,-23.29427 -23.665451,0 z"
         id="path7088"
         inkscape:connector-curvature="0" />
      <path
         style="display:inline;fill:#000000;stroke:none"
         d="m 120.42333,404.9961 0,23.71032 23.66547,0 23.22101,0 23.21889,0 23.22099,0 23.32792,0 22.77653,0 0.44448,0 23.22099,0 0,-23.71032 -23.22099,0 -0.44448,0 -22.77653,0 -23.32792,0 -23.22099,0 -23.21889,0 -23.22101,0 -23.66547,0 z"
         id="path7090"
         inkscape:connector-curvature="0" />
      <rect
         style="display:inline;fill:#000000;stroke:none"
         id="rect7092"
         width="23.665962"
         height="23.710703"
         x="306.29419"
         y="404.99551" />
      <path
         style="display:inline;fill:#fcd2e0;fill-opacity:1;stroke:none"
         d="m 120.42333,428.29037 0,23.29633 -23.220981,0 0,23.71031 0,23.29634 23.220981,0 0.44447,0 23.221,0 0,-23.71032 -23.221,0 0,-22.88029 23.221,0 0,-23.71237 -23.66547,0 z"
         id="path7094"
         inkscape:connector-curvature="0" />
      <path
         style="display:inline;fill:#ffaac7;fill-opacity:1;stroke:none"
         d="m 143.64223,428.29037 0,23.29633 0,0.41604 0,23.29427 0,23.29634 23.221,0 0,23.29633 23.22101,0 0,23.29634 0,23.29426 0,23.29634 0,22.88029 -23.22101,0 0,23.29634 -23.221,0 0,23.7103 0,23.29633 23.66758,0 23.21889,0 23.22099,0 23.32792,0 23.22101,0 0,-23.71031 0,-23.29632 -23.22101,0 -23.32792,0 -23.22099,0 0,-22.88029 23.22099,0 23.32792,0 23.22101,0 0,-23.29634 23.22099,0 0,-23.71031 0,-23.29632 0,-23.29635 0,-23.29427 0,-23.29634 0,-23.29633 0,-23.29633 -23.22099,0 -23.22101,0 -23.32792,0 -23.22099,0 -23.21889,0 -0.44658,0 -23.221,0 z m 46.88647,23.71237 22.88346,0 0,22.88029 -22.88346,0 0,-22.88029 z"
         id="path7096"
         inkscape:connector-curvature="0" />
      <rect
         style="display:inline;fill:#000000;stroke:none"
         id="rect7098"
         width="23.665962"
         height="23.710703"
         x="283.07373"
         y="428.29135" />
      <rect
         style="display:inline;fill:#000000;stroke:none"
         id="rect7100"
         width="23.665962"
         height="23.710703"
         x="190.08395"
         y="451.58716" />
      <path
         style="display:inline;fill:#f7859c;fill-opacity:1;stroke:none"
         d="m 283.07304,451.5867 0,23.71031 0,23.29634 0,23.29633 0,22.88031 0,0.41603 0,23.29426 23.66758,0 0,-23.29426 0,-0.41603 0,-23.29635 0,-23.29427 0,-23.29634 0,-23.29633 -23.66758,0 z"
         id="path7102"
         inkscape:connector-curvature="0" />
      <path
         style="display:inline;fill:#000000;stroke:none"
         d="m 306.29404,451.5867 0,23.29633 0,0.41398 0,23.29634 0,23.29633 0,23.29634 0,23.29426 23.66547,0 0,-23.71029 0,-23.29635 0,-23.29427 0,-22.88236 0,-0.41398 0,-23.29633 -23.66547,0 z"
         id="path7104"
         inkscape:connector-curvature="0" />
      <path
         style="display:inline;fill:#000000;stroke:none"
         d="m 27.541454,521.47364 0,23.29635 0,0.41603 0,23.29426 0,23.29634 0,23.29634 23.665455,0 0,-23.71033 0,-23.29632 0,-22.88029 0,-0.41603 0,-23.29635 -23.665455,0 z"
         id="path7106"
         inkscape:connector-curvature="0" />
      <path
         style="display:inline;fill:#e7799e;fill-opacity:1;stroke:none"
         d="m 50.760338,521.47364 0,23.29635 0,0.41603 0,23.29426 0.0021,0 0,23.29634 0,23.29634 23.665455,0 0,-23.71033 0,-23.29632 0,-22.88029 22.774444,0 0,23.29426 0,23.29634 0,23.29634 23.665453,0 0,-23.71033 0,-23.29632 0,-22.88029 22.77443,0 0,23.29426 0,23.29634 0,23.29634 23.66758,0 0,-23.71033 0,-23.29632 0,-23.29632 0,-23.29635 -23.22101,0 -23.221,0 -23.221006,0 -23.218891,0 -0.44656,0 -23.221007,0 z"
         id="path7108"
         inkscape:connector-curvature="0" />
      <path
         style="display:inline;fill:#000000;stroke:none"
         d="m 166.86323,521.47364 0,23.71238 0,23.29426 0,22.88235 0,0.41399 0,23.29634 23.66547,0 0,-23.29634 0,-0.41399 0,-23.29632 0,-23.29632 0,-23.29635 -23.66547,0 z"
         id="path7110"
         inkscape:connector-curvature="0" />
      <path
         style="display:inline;fill:#000000;stroke:none"
         d="m 73.981346,544.76999 0,23.29632 0,0.41397 0,23.29634 23.667563,0 0,-23.71031 -0.0021,0 0,-23.29632 -23.665451,0 z"
         id="path7112"
         inkscape:connector-curvature="0" />
      <path
         style="display:inline;fill:#000000;stroke:none"
         d="m 120.42333,544.76999 0,23.29632 0,0.41397 0,23.29634 23.66547,0 0,-23.29634 0,-0.41397 0,-23.29632 -23.66547,0 z"
         id="path7114"
         inkscape:connector-curvature="0" />
      <rect
         style="display:inline;fill:#000000;stroke:none"
         id="rect7116"
         width="23.665962"
         height="23.710703"
         x="283.07388"
         y="568.06635" />
      <rect
         style="display:inline;fill:#8e5f6f;fill-opacity:1;stroke:none"
         id="rect7118"
         width="23.665962"
         height="23.710703"
         x="73.981941"
         y="591.36212" />
      <rect
         style="display:inline;fill:#8e5f6f;fill-opacity:1;stroke:none"
         id="rect7120"
         width="23.665962"
         height="23.710703"
         x="120.42283"
         y="591.36212" />
      <rect
         y="591.36212"
         x="259.85349"
         height="23.710703"
         width="23.665962"
         id="rect7122"
         style="display:inline;fill:#000000;stroke:none" />
      <path
         style="display:inline;fill:#000000;stroke:none"
         d="m 50.760338,614.65691 0,23.71237 23.221008,0 0.44656,0 23.218891,0 22.776533,0 0,22.88029 -23.220981,0 0,23.71031 23.665451,0 23.221,0 0,-23.71031 0,-22.88029 23.22101,0 0,-23.71237 -23.22101,0 -23.221,0 -23.221003,0 -23.218891,0 -0.44656,0 -23.221008,0 z"
         id="path7124"
         inkscape:connector-curvature="0" />
      <path
         style="display:inline;fill:#000000;stroke:none"
         d="m 190.08424,614.65691 0,23.71237 23.66545,0 22.88347,0 0.44445,0 23.22101,0 0,-23.71237 -23.22101,0 -0.44445,0 -22.88347,0 -23.66545,0 z"
         id="path7126"
         inkscape:connector-curvature="0" />
      <path
         style="display:inline;fill:#000000;stroke:none"
         d="m 259.85414,637.95325 0,23.29632 0,0.41398 0,23.29633 23.2189,0 0.44657,0 23.22101,0 0,-23.71031 -23.22101,0 0,-23.29632 -23.66547,0 z"
         id="path7128"
         inkscape:connector-curvature="0" />
      <path
         style="display:inline;fill:#000000;stroke:none"
         d="m 143.64223,684.54591 0,23.29634 0,0.41397 0,22.8803 -23.2189,0 0,23.71029 23.66547,0 23.22101,0 0,-23.71029 0,-22.8803 23.21889,0 23.22099,0 22.88347,0 0,22.8803 -23.221,0 0,23.71029 23.66545,0 23.22101,0 0,-23.71029 0,-23.29427 0,-23.29634 -23.22101,0 -23.32792,0 -23.22099,0 -23.21889,0 -0.44658,0 -23.221,0 z"
         id="path7130"
         inkscape:connector-curvature="0" />
      <rect
         style="display:inline;fill:#37271a;fill-opacity:1;stroke:none"
         id="rect7132"
         width="23.665962"
         height="23.710703"
         x="329.60397"
         y="707.84119" />
      <rect
         y="731.13708"
         x="306.38354"
         height="23.710703"
         width="23.665962"
         id="rect7134"
         style="display:inline;fill:#593912;fill-opacity:1;stroke:none" />
      <rect
         style="display:inline;fill:#945f01;fill-opacity:1;stroke:none"
         id="rect7136"
         width="23.665962"
         height="23.710703"
         x="329.60397"
         y="731.13708" />
      <rect
         style="display:inline;fill:#37271a;fill-opacity:1;stroke:none"
         id="rect7138"
         width="23.665962"
         height="23.710703"
         x="352.82443"
         y="731.13708" />
    </g>
    <rect
       y="-22.053631"
       x="491.24268"
       height="396"
       width="396"
       id="rect7169"
       style="display:inline;opacity:1;fill:#cccccc;fill-opacity:1;stroke:none;stroke-width:11;stroke-linejoin:round;stroke-miterlimit:4;stroke-dasharray:none;stroke-dashoffset:0;stroke-opacity:1" />
    <g
       id="g7223"
       transform="translate(22.556565,-23.147769)">
      <path
         style="display:inline;fill:#000000;stroke:none"
         d="m 538.65152,24.168586 0,23.710324 23.221,0 0,22.880282 -23.221,0 0,23.710304 0,22.882364 -23.22101,0 0,23.71031 23.66757,0 23.21889,0 23.221,0 22.77443,0 0.44657,0 23.22101,0 0,-23.71031 -23.22101,0 -0.44657,0 -22.77443,0 -23.221,0 0,-23.296335 0,-22.880292 22.77653,0 0,23.294263 23.66547,0 0,-23.710304 -23.221,0 0,-23.296333 -23.221,0 0,-23.294273 -23.66545,0 z"
         id="path7171"
         inkscape:connector-curvature="0" />
      <path
         style="display:inline;fill:#000000;stroke:none"
         d="m 585.0935,24.168586 0,23.710324 23.66547,0 23.22101,0 23.21889,0 23.22099,0 23.32792,0 22.77653,0 0.44448,0 23.22099,0 0,-23.710324 -23.22099,0 -0.44448,0 -22.77653,0 -23.32792,0 -23.22099,0 -23.21889,0 -23.22101,0 -23.66547,0 z"
         id="path7173"
         inkscape:connector-curvature="0" />
      <rect
         style="display:inline;fill:#000000;stroke:none"
         id="rect7175"
         width="23.665962"
         height="23.710703"
         x="770.96442"
         y="24.168001" />
      <path
         style="display:inline;fill:#fcd2e0;fill-opacity:1;stroke:none"
         d="m 585.0935,47.462859 0,23.296333 -23.22098,0 0,23.710304 0,23.296344 23.22098,0 0.44447,0 23.221,0 0,-23.710315 -23.221,0 0,-22.880292 23.221,0 0,-23.712374 -23.66547,0 z"
         id="path7177"
         inkscape:connector-curvature="0" />
      <path
         style="display:inline;fill:#ffaac7;fill-opacity:1;stroke:none"
         d="m 608.3124,47.462859 0,23.296333 0,0.416041 0,23.294263 0,23.296344 23.221,0 0,23.29633 23.22101,0 0,23.29634 0,23.29426 0,23.29634 0,22.88029 -23.22101,0 0,23.29634 -23.221,0 0,23.7103 0,23.29633 23.66758,0 23.21889,0 23.22099,0 23.32792,0 23.22101,0 0,-23.71031 0,-23.29632 -23.22101,0 -23.32792,0 -23.22099,0 0,-22.88029 23.22099,0 23.32792,0 23.22101,0 0,-23.29634 23.22099,0 0,-23.71031 0,-23.29632 0,-23.29635 0,-23.29427 0,-23.296335 0,-23.296333 0,-23.296333 -23.22099,0 -23.22101,0 -23.32792,0 -23.22099,0 -23.21889,0 -0.44658,0 -23.221,0 z m 46.88647,23.712374 22.88346,0 0,22.880292 -22.88346,0 0,-22.880292 z"
         id="path7179"
         inkscape:connector-curvature="0" />
      <rect
         style="display:inline;fill:#000000;stroke:none"
         id="rect7181"
         width="23.665962"
         height="23.710703"
         x="747.74396"
         y="47.463856" />
      <rect
         style="display:inline;fill:#000000;stroke:none"
         id="rect7183"
         width="23.665962"
         height="23.710703"
         x="654.75415"
         y="70.759651" />
      <path
         style="display:inline;fill:#f7859c;fill-opacity:1;stroke:none"
         d="m 747.74321,70.759192 0,23.710304 0,23.296344 0,23.29633 0,22.88031 0,0.41603 0,23.29426 23.66758,0 0,-23.29426 0,-0.41603 0,-23.29635 0,-23.29427 0,-23.296335 0,-23.296333 -23.66758,0 z"
         id="path7185"
         inkscape:connector-curvature="0" />
      <path
         style="display:inline;fill:#000000;stroke:none"
         d="m 770.96421,70.759192 0,23.296333 0,0.413971 0,23.296344 0,23.29633 0,23.29634 0,23.29426 23.66547,0 0,-23.71029 0,-23.29635 0,-23.29427 0,-22.882364 0,-0.413971 0,-23.296333 -23.66547,0 z"
         id="path7187"
         inkscape:connector-curvature="0" />
      <path
         style="display:inline;fill:#000000;stroke:none"
         d="m 492.21163,140.64613 0,23.29635 0,0.41603 0,23.29426 0,23.29634 0,23.29634 23.66545,0 0,-23.71033 0,-23.29632 0,-22.88029 0,-0.41603 0,-23.29635 -23.66545,0 z"
         id="path7189"
         inkscape:connector-curvature="0" />
      <path
         style="display:inline;fill:#e7799e;fill-opacity:1;stroke:none"
         d="m 515.43051,140.64613 0,23.29635 0,0.41603 0,23.29426 0.002,0 0,23.29634 0,23.29634 23.66546,0 0,-23.71033 0,-23.29632 0,-22.88029 22.77444,0 0,23.29426 0,23.29634 0,23.29634 23.66545,0 0,-23.71033 0,-23.29632 0,-22.88029 22.77443,0 0,23.29426 0,23.29634 0,23.29634 23.66758,0 0,-23.71033 0,-23.29632 0,-23.29632 0,-23.29635 -23.22101,0 -23.221,0 -23.221,0 -23.21889,0 -0.44656,0 -23.22101,0 z"
         id="path7191"
         inkscape:connector-curvature="0" />
      <path
         style="display:inline;fill:#000000;stroke:none"
         d="m 631.5334,140.64613 0,23.71238 0,23.29426 0,22.88235 0,0.41399 0,23.29634 23.66547,0 0,-23.29634 0,-0.41399 0,-23.29632 0,-23.29632 0,-23.29635 -23.66547,0 z"
         id="path7193"
         inkscape:connector-curvature="0" />
      <path
         style="display:inline;fill:#000000;stroke:none"
         d="m 538.65152,163.94248 0,23.29632 0,0.41397 0,23.29634 23.66756,0 0,-23.71031 -0.002,0 0,-23.29632 -23.66545,0 z"
         id="path7195"
         inkscape:connector-curvature="0" />
      <path
         style="display:inline;fill:#000000;stroke:none"
         d="m 585.0935,163.94248 0,23.29632 0,0.41397 0,23.29634 23.66547,0 0,-23.29634 0,-0.41397 0,-23.29632 -23.66547,0 z"
         id="path7197"
         inkscape:connector-curvature="0" />
      <rect
         style="display:inline;fill:#000000;stroke:none"
         id="rect7199"
         width="23.665962"
         height="23.710703"
         x="747.74408"
         y="187.23882" />
      <rect
         style="display:inline;fill:#8e5f6f;fill-opacity:1;stroke:none"
         id="rect7201"
         width="23.665962"
         height="23.710703"
         x="538.6521"
         y="210.53461" />
      <rect
         style="display:inline;fill:#8e5f6f;fill-opacity:1;stroke:none"
         id="rect7203"
         width="23.665962"
         height="23.710703"
         x="585.09302"
         y="210.53461" />
      <rect
         y="210.53461"
         x="724.52368"
         height="23.710703"
         width="23.665962"
         id="rect7205"
         style="display:inline;fill:#000000;stroke:none" />
      <path
         style="display:inline;fill:#000000;stroke:none"
         d="m 515.43051,233.8294 0,23.71237 23.22101,0 0.44656,0 23.21889,0 22.77653,0 0,22.88029 -23.22098,0 0,23.71031 23.66545,0 23.221,0 0,-23.71031 0,-22.88029 23.22101,0 0,-23.71237 -23.22101,0 -23.221,0 -23.221,0 -23.21889,0 -0.44656,0 -23.22101,0 z"
         id="path7207"
         inkscape:connector-curvature="0" />
      <path
         style="display:inline;fill:#000000;stroke:none"
         d="m 654.75441,233.8294 0,23.71237 23.66545,0 22.88347,0 0.44445,0 23.22101,0 0,-23.71237 -23.22101,0 -0.44445,0 -22.88347,0 -23.66545,0 z"
         id="path7209"
         inkscape:connector-curvature="0" />
      <path
         style="display:inline;fill:#000000;stroke:none"
         d="m 724.52431,257.12574 0,23.29632 0,0.41398 0,23.29633 23.2189,0 0.44657,0 23.22101,0 0,-23.71031 -23.22101,0 0,-23.29632 -23.66547,0 z"
         id="path7211"
         inkscape:connector-curvature="0" />
      <path
         style="display:inline;fill:#000000;stroke:none"
         d="m 608.3124,303.7184 0,23.29634 0,0.41397 0,22.8803 -23.2189,0 0,23.71029 23.66547,0 23.22101,0 0,-23.71029 0,-22.8803 23.21889,0 23.22099,0 22.88347,0 0,22.8803 -23.221,0 0,23.71029 23.66545,0 23.22101,0 0,-23.71029 0,-23.29427 0,-23.29634 -23.22101,0 -23.32792,0 -23.22099,0 -23.21889,0 -0.44658,0 -23.221,0 z"
         id="path7213"
         inkscape:connector-curvature="0" />
      <rect
         style="display:inline;fill:#37271a;fill-opacity:1;stroke:none"
         id="rect7215"
         width="23.665962"
         height="23.710703"
         x="794.27417"
         y="327.0137" />
      <rect
         y="350.30957"
         x="771.05377"
         height="23.710703"
         width="23.665962"
         id="rect7217"
         style="display:inline;fill:#593912;fill-opacity:1;stroke:none" />
      <rect
         style="display:inline;fill:#945f01;fill-opacity:1;stroke:none"
         id="rect7219"
         width="23.665962"
         height="23.710703"
         x="794.27417"
         y="350.30957" />
      <rect
         style="display:inline;fill:#37271a;fill-opacity:1;stroke:none"
         id="rect7221"
         width="23.665962"
         height="23.710703"
         x="817.49463"
         y="350.30957" />
    </g>
    <g
       id="g7307"
       transform="translate(0,-17.172593)">
      <rect
         y="419.38303"
         x="491.24268"
         height="396"
         width="396"
         id="rect7251"
         style="display:inline;opacity:1;fill:#ffffff;fill-opacity:1;stroke:none;stroke-width:11;stroke-linejoin:round;stroke-miterlimit:4;stroke-dasharray:none;stroke-dashoffset:0;stroke-opacity:1" />
      <g
         id="g7253"
         transform="translate(22.556565,418.28889)">
        <path
           style="display:inline;fill:#000000;stroke:none"
           d="m 538.65152,24.168586 0,23.710324 23.221,0 0,22.880282 -23.221,0 0,23.710304 0,22.882364 -23.22101,0 0,23.71031 23.66757,0 23.21889,0 23.221,0 22.77443,0 0.44657,0 23.22101,0 0,-23.71031 -23.22101,0 -0.44657,0 -22.77443,0 -23.221,0 0,-23.296335 0,-22.880292 22.77653,0 0,23.294263 23.66547,0 0,-23.710304 -23.221,0 0,-23.296333 -23.221,0 0,-23.294273 -23.66545,0 z"
           id="path7255"
           inkscape:connector-curvature="0" />
        <path
           style="display:inline;fill:#000000;stroke:none"
           d="m 585.0935,24.168586 0,23.710324 23.66547,0 23.22101,0 23.21889,0 23.22099,0 23.32792,0 22.77653,0 0.44448,0 23.22099,0 0,-23.710324 -23.22099,0 -0.44448,0 -22.77653,0 -23.32792,0 -23.22099,0 -23.21889,0 -23.22101,0 -23.66547,0 z"
           id="path7257"
           inkscape:connector-curvature="0" />
        <rect
           style="display:inline;fill:#000000;stroke:none"
           id="rect7259"
           width="23.665962"
           height="23.710703"
           x="770.96442"
           y="24.168001" />
        <path
           style="display:inline;fill:#fcd2e0;fill-opacity:1;stroke:none"
           d="m 585.0935,47.462859 0,23.296333 -23.22098,0 0,23.710304 0,23.296344 23.22098,0 0.44447,0 23.221,0 0,-23.710315 -23.221,0 0,-22.880292 23.221,0 0,-23.712374 -23.66547,0 z"
           id="path7261"
           inkscape:connector-curvature="0" />
        <path
           style="display:inline;fill:#ffaac7;fill-opacity:1;stroke:none"
           d="m 608.3124,47.462859 0,23.296333 0,0.416041 0,23.294263 0,23.296344 23.221,0 0,23.29633 23.22101,0 0,23.29634 0,23.29426 0,23.29634 0,22.88029 -23.22101,0 0,23.29634 -23.221,0 0,23.7103 0,23.29633 23.66758,0 23.21889,0 23.22099,0 23.32792,0 23.22101,0 0,-23.71031 0,-23.29632 -23.22101,0 -23.32792,0 -23.22099,0 0,-22.88029 23.22099,0 23.32792,0 23.22101,0 0,-23.29634 23.22099,0 0,-23.71031 0,-23.29632 0,-23.29635 0,-23.29427 0,-23.296335 0,-23.296333 0,-23.296333 -23.22099,0 -23.22101,0 -23.32792,0 -23.22099,0 -23.21889,0 -0.44658,0 -23.221,0 z m 46.88647,23.712374 22.88346,0 0,22.880292 -22.88346,0 0,-22.880292 z"
           id="path7263"
           inkscape:connector-curvature="0" />
        <rect
           style="display:inline;fill:#000000;stroke:none"
           id="rect7265"
           width="23.665962"
           height="23.710703"
           x="747.74396"
           y="47.463856" />
        <rect
           style="display:inline;fill:#000000;stroke:none"
           id="rect7267"
           width="23.665962"
           height="23.710703"
           x="654.75415"
           y="70.759651" />
        <path
           style="display:inline;fill:#f7859c;fill-opacity:1;stroke:none"
           d="m 747.74321,70.759192 0,23.710304 0,23.296344 0,23.29633 0,22.88031 0,0.41603 0,23.29426 23.66758,0 0,-23.29426 0,-0.41603 0,-23.29635 0,-23.29427 0,-23.296335 0,-23.296333 -23.66758,0 z"
           id="path7269"
           inkscape:connector-curvature="0" />
        <path
           style="display:inline;fill:#000000;stroke:none"
           d="m 770.96421,70.759192 0,23.296333 0,0.413971 0,23.296344 0,23.29633 0,23.29634 0,23.29426 23.66547,0 0,-23.71029 0,-23.29635 0,-23.29427 0,-22.882364 0,-0.413971 0,-23.296333 -23.66547,0 z"
           id="path7271"
           inkscape:connector-curvature="0" />
        <path
           style="display:inline;fill:#000000;stroke:none"
           d="m 492.21163,140.64613 0,23.29635 0,0.41603 0,23.29426 0,23.29634 0,23.29634 23.66545,0 0,-23.71033 0,-23.29632 0,-22.88029 0,-0.41603 0,-23.29635 -23.66545,0 z"
           id="path7273"
           inkscape:connector-curvature="0" />
        <path
           style="display:inline;fill:#e7799e;fill-opacity:1;stroke:none"
           d="m 515.43051,140.64613 0,23.29635 0,0.41603 0,23.29426 0.002,0 0,23.29634 0,23.29634 23.66546,0 0,-23.71033 0,-23.29632 0,-22.88029 22.77444,0 0,23.29426 0,23.29634 0,23.29634 23.66545,0 0,-23.71033 0,-23.29632 0,-22.88029 22.77443,0 0,23.29426 0,23.29634 0,23.29634 23.66758,0 0,-23.71033 0,-23.29632 0,-23.29632 0,-23.29635 -23.22101,0 -23.221,0 -23.221,0 -23.21889,0 -0.44656,0 -23.22101,0 z"
           id="path7275"
           inkscape:connector-curvature="0" />
        <path
           style="display:inline;fill:#000000;stroke:none"
           d="m 631.5334,140.64613 0,23.71238 0,23.29426 0,22.88235 0,0.41399 0,23.29634 23.66547,0 0,-23.29634 0,-0.41399 0,-23.29632 0,-23.29632 0,-23.29635 -23.66547,0 z"
           id="path7277"
           inkscape:connector-curvature="0" />
        <path
           style="display:inline;fill:#000000;stroke:none"
           d="m 538.65152,163.94248 0,23.29632 0,0.41397 0,23.29634 23.66756,0 0,-23.71031 -0.002,0 0,-23.29632 -23.66545,0 z"
           id="path7279"
           inkscape:connector-curvature="0" />
        <path
           style="display:inline;fill:#000000;stroke:none"
           d="m 585.0935,163.94248 0,23.29632 0,0.41397 0,23.29634 23.66547,0 0,-23.29634 0,-0.41397 0,-23.29632 -23.66547,0 z"
           id="path7281"
           inkscape:connector-curvature="0" />
        <rect
           style="display:inline;fill:#000000;stroke:none"
           id="rect7283"
           width="23.665962"
           height="23.710703"
           x="747.74408"
           y="187.23882" />
        <rect
           style="display:inline;fill:#8e5f6f;fill-opacity:1;stroke:none"
           id="rect7285"
           width="23.665962"
           height="23.710703"
           x="538.6521"
           y="210.53461" />
        <rect
           style="display:inline;fill:#8e5f6f;fill-opacity:1;stroke:none"
           id="rect7287"
           width="23.665962"
           height="23.710703"
           x="585.09302"
           y="210.53461" />
        <rect
           y="210.53461"
           x="724.52368"
           height="23.710703"
           width="23.665962"
           id="rect7289"
           style="display:inline;fill:#000000;stroke:none" />
        <path
           style="display:inline;fill:#000000;stroke:none"
           d="m 515.43051,233.8294 0,23.71237 23.22101,0 0.44656,0 23.21889,0 22.77653,0 0,22.88029 -23.22098,0 0,23.71031 23.66545,0 23.221,0 0,-23.71031 0,-22.88029 23.22101,0 0,-23.71237 -23.22101,0 -23.221,0 -23.221,0 -23.21889,0 -0.44656,0 -23.22101,0 z"
           id="path7291"
           inkscape:connector-curvature="0" />
        <path
           style="display:inline;fill:#000000;stroke:none"
           d="m 654.75441,233.8294 0,23.71237 23.66545,0 22.88347,0 0.44445,0 23.22101,0 0,-23.71237 -23.22101,0 -0.44445,0 -22.88347,0 -23.66545,0 z"
           id="path7293"
           inkscape:connector-curvature="0" />
        <path
           style="display:inline;fill:#000000;stroke:none"
           d="m 724.52431,257.12574 0,23.29632 0,0.41398 0,23.29633 23.2189,0 0.44657,0 23.22101,0 0,-23.71031 -23.22101,0 0,-23.29632 -23.66547,0 z"
           id="path7295"
           inkscape:connector-curvature="0" />
        <path
           style="display:inline;fill:#000000;stroke:none"
           d="m 608.3124,303.7184 0,23.29634 0,0.41397 0,22.8803 -23.2189,0 0,23.71029 23.66547,0 23.22101,0 0,-23.71029 0,-22.8803 23.21889,0 23.22099,0 22.88347,0 0,22.8803 -23.221,0 0,23.71029 23.66545,0 23.22101,0 0,-23.71029 0,-23.29427 0,-23.29634 -23.22101,0 -23.32792,0 -23.22099,0 -23.21889,0 -0.44658,0 -23.221,0 z"
           id="path7297"
           inkscape:connector-curvature="0" />
        <rect
           style="display:inline;fill:#37271a;fill-opacity:1;stroke:none"
           id="rect7299"
           width="23.665962"
           height="23.710703"
           x="794.27417"
           y="327.0137" />
        <rect
           y="350.30957"
           x="771.05377"
           height="23.710703"
           width="23.665962"
           id="rect7301"
           style="display:inline;fill:#593912;fill-opacity:1;stroke:none" />
        <rect
           style="display:inline;fill:#945f01;fill-opacity:1;stroke:none"
           id="rect7303"
           width="23.665962"
           height="23.710703"
           x="794.27417"
           y="350.30957" />
        <rect
           style="display:inline;fill:#37271a;fill-opacity:1;stroke:none"
           id="rect7305"
           width="23.665962"
           height="23.710703"
           x="817.49463"
           y="350.30957" />
      </g>
    </g>
  </g>
</svg>
